<?xml version="1.0" encoding="UTF-8"?>
<svg width="255px" height="80px" viewBox="0 0 255 80" version="1.1" xmlns="http://www.w3.org/2000/svg" xmlns:xlink="http://www.w3.org/1999/xlink">
    <title>Logos/_Afelio/color</title>
    <g id="Logos/_Afelio/color" stroke="none" stroke-width="1" fill="none" fill-rule="evenodd">
        <g id="Afelio---RVB" transform="translate(0.375024, 0.212059)">
            <path d="M170.589932,8.0147122 C170.589932,9.91402927 169.900761,11.5596878 168.516956,12.9446634 C167.13159,14.329639 165.487493,14.9895415 163.585834,14.9294439 C161.744273,14.8798829 160.184859,14.185639 158.910322,12.8369561 C157.633834,11.4945171 156.998907,9.89451707 156.998907,8.0369561 C156.998907,6.10407805 157.683395,4.44515122 159.062907,3.06056585 C160.438907,1.67754146 162.080273,1.01646829 163.97998,1.07890732 C165.8192,1.14056585 167.382907,1.84651707 168.665639,3.20105366 C169.94798,4.55285854 170.589932,6.15910244 170.589932,8.0147122" id="Fill-1" fill="#D81D15"></path>
            <path d="M203.07278,71.8420683 C190.86361,71.8420683 180.967805,61.9447024 180.967805,49.735922 C180.967805,37.5255805 190.86361,27.6286049 203.07278,27.6286049 C215.282341,27.6286049 225.179707,37.5255805 225.179707,49.735922 C225.179707,61.9447024 215.282341,71.8420683 203.07278,71.8420683 L203.07278,71.8420683 Z M203.07278,20.0528 C186.680585,20.0528 173.390049,33.3413854 173.390049,49.735922 C173.390049,66.1288976 186.680585,79.4190439 203.07278,79.4190439 C219.466927,79.4190439 232.756683,66.1288976 232.756683,49.735922 C232.756683,33.3413854 219.466927,20.0528 203.07278,20.0528 L203.07278,20.0528 Z M145.486439,77.2578732 L153.011902,77.2578732 L153.011902,0.895336585 L145.486439,0.895336585 L145.486439,77.2578732 Z M89.7931707,44.6732878 C90.8468293,39.3203122 93.4040976,34.9991415 97.4649756,31.6980683 C101.528195,28.3950439 106.265366,26.7770927 111.67922,26.8438244 C117.093073,26.9093854 121.745951,28.5761171 125.643707,31.847922 C129.541463,35.1134829 132.018732,39.3917268 133.07239,44.6732878 L89.7931707,44.6732878 Z M112.869463,19.2200195 C104.485463,18.7571902 97.203122,21.5829463 91.0282927,27.6883122 C84.8577561,33.795239 81.8673171,41.075239 82.0694634,49.5248 C82.1990244,57.5146537 85.2370732,64.4008976 91.1789268,70.1718244 C97.1227317,75.9521171 103.953171,78.7774829 111.67922,78.641678 C117.820878,78.5757268 123.397854,76.7618732 128.419902,73.1946537 C133.435317,69.6293854 137.001366,64.8133854 139.117268,58.7333854 L131.095024,58.7333854 C127.26478,66.8555317 120.890146,70.9843122 111.976195,71.1150439 C106.232585,71.1821659 101.24761,69.3659707 97.0197073,65.667239 C92.7960976,61.971239 90.3851707,57.2855805 89.7931707,51.6028488 L140.499512,51.6028488 L140.499512,47.5450927 C140.499512,40.5468488 137.828683,34.2073366 132.48039,28.5281171 C126.932683,22.7821659 120.396878,19.681678 112.869463,19.2200195 L112.869463,19.2200195 Z M159.777171,77.2578732 L167.302634,77.2578732 L167.302634,19.2746537 L159.777171,19.2746537 L159.777171,77.2578732 Z M44.1065366,64.7142634 C39.7053659,69.313678 34.3957073,71.4803122 28.174439,71.2153366 C22.416,70.951922 17.5043902,68.5854829 13.4325854,64.118361 C9.36312195,59.6535805 7.39356098,54.4395317 7.5235122,48.4836293 C7.5875122,42.4625561 9.7404878,37.334361 13.9789268,33.0998244 C18.2130732,28.865678 23.342439,26.7458732 29.3666341,26.7458732 C35.1207805,26.7458732 40.0507317,28.865678 44.1541463,33.0998244 C48.2610732,37.334361 50.3785366,42.4305561 50.510439,48.3837268 C50.6392195,54.6732878 48.5108293,60.1171902 44.1065366,64.7142634 L44.1065366,64.7142634 Z M29.9110244,19.4182634 C21.7225366,19.0865561 14.6903415,21.8760195 8.81170732,27.7847024 C2.93463415,33.6945561 0,40.7794341 0,49.0299707 C0,56.9546537 2.72429268,63.7862634 8.1857561,69.5318244 C13.6460488,75.2758244 20.2548293,78.2807024 28.017561,78.5429463 C36.8952195,78.807922 44.3933659,75.4408976 50.510439,68.4430439 L50.510439,77.2578732 L58.0370732,77.2578732 L58.0370732,48.9316293 C58.300878,41.075239 55.662439,34.2561171 50.1143415,28.4773854 C44.5685854,22.7021659 37.8325854,19.681678 29.9110244,19.4182634 L29.9110244,19.4182634 Z M85.998439,20.8028488 L71.7346341,20.8028488 L71.7346341,18.4075317 C71.7346341,15.7476293 73.0009756,13.0892878 75.523122,10.4266537 C77.1875122,8.76109268 80.012878,7.82997073 84.0039024,7.62938537 L85.998439,7.62938537 L85.998439,0.895336585 L84.0183415,0.895336585 C78.2107317,0.895336585 73.4505366,2.53045854 69.7545366,5.80109268 C66.0565854,9.06470244 64.2087805,13.7074341 64.2087805,19.7140683 L64.2087805,77.2578732 L71.7346341,77.2578732 L71.7346341,27.734361 L85.998439,27.734361 L85.998439,20.8028488 Z" id="Fill-3" fill="#1A2F52"></path>
            <path d="M240.400117,32.0249756 C240.383727,22.9841951 231.441288,14.0409756 222.401678,14.0253659 L222.401678,9.33970732 C234.031337,9.34126829 245.084215,20.3945366 245.086166,32.0249756 L240.400117,32.0249756 Z" id="Fill-5" fill="#D81D15"></path>
            <path d="M231.698927,32.0249756 C231.690732,27.9102439 226.516098,22.734439 222.401756,22.7266341 L222.401756,18.0409756 C229.108488,18.0417561 236.382634,25.3213659 236.382634,32.0249756 L236.384585,32.0249756 L231.698927,32.0249756 Z" id="Fill-7" fill="#1A2F52"></path>
            <path d="M249.740839,32.0249756 C249.738888,24.4679024 246.684449,17.6487805 241.732644,12.6938537 C236.778498,7.74282927 229.958205,4.68682927 222.401522,4.68565854 L222.401522,0 C240.088937,0.00195121951 254.424937,14.3371707 254.426888,32.0249756 L249.740839,32.0249756 Z" id="Fill-9" fill="#4DA8D6"></path>
        </g>
    </g>
</svg>