<svg width="151" height="47" viewBox="0 0 151 47" fill="none" xmlns="http://www.w3.org/2000/svg">
<path fill-rule="evenodd" clip-rule="evenodd" d="M145.6 31.2H139.9L144.3 6L140.8 7.9L141.8 2.3L145.3 0H150.9L145.6 31.2ZM69.9 5.1L60.9 26.1L59.3 5.2H53L45.7 46.8H51.4L55.4 21L56.4 36.3H61.9L68.3 20.8L63.2 46.7H68.9L76.2 5.1H69.9ZM10.7 31.2L11.6 26.1H20.2L16.6 46.8H5.49998C1.09998 46.8 -0.600022 44.4 0.199978 39.6L4.89998 12.5C5.79998 7.7 8.39998 5.2 12.7 5.2H16.6C21.4 5.2 23.4 7.7 22.5 12.6L22 15.6H16.3L16.7 13.4C17.1 11.4 16.4 10.3 14.8 10.3H13.4C11.7 10.3 10.7 11.3 10.4 13.4L5.99998 38.6C5.59998 40.7 6.29998 41.7 7.89998 41.7H11.7L13.5 31.2H10.7ZM22.2 46.8H27.9L30.6 31.2H37.1L34.3 46.8H40L46.1 12.5C47 7.6 45.1 5.2 40.6 5.2H36.3C31.7 5.2 29.1 7.7 28.2 12.5L22.2 46.8ZM40.4 12.9L38.1 26.1H31.7L34 12.9C34.3 11.2 35.2 10.4 36.9 10.4H38.4C40 10.4 40.7 11.2 40.4 12.9ZM74.5 46.8L81.8 5.2H87.5L80.2 46.8H74.5ZM123.3 26L122.4 31.2H125.5L123.7 41.6H119.9C118.3 41.6 117.6 40.6 118 38.5L122.3 13.4C122.6 11.3 123.6 10.3 125.3 10.3H126.7C128.3 10.3 129 11.4 128.6 13.4L128.2 15.6H133.9L134.4 12.6C135.3 7.7 133.3 5.2 128.5 5.2H124.6C120.3 5.2 117.7 7.7 116.8 12.5L112.1 39.6C111.3 44.4 113 46.8 117.4 46.8H128.5L132.1 26H123.3ZM106.8 5.2L102.3 31.2L98.8 5.2H93.1L85.8 46.8H91.5L96 21.1L99.6 46.8H105.2L112.5 5.2H106.8Z" fill="#A68C5A"/>
</svg>
