<?xml version="1.0" encoding="UTF-8" standalone="no"?>
<svg
   xmlns:dc="http://purl.org/dc/elements/1.1/"
   xmlns:cc="http://creativecommons.org/ns#"
   xmlns:rdf="http://www.w3.org/1999/02/22-rdf-syntax-ns#"
   xmlns:svg="http://www.w3.org/2000/svg"
   xmlns="http://www.w3.org/2000/svg"
   version="1.1"
   id="svg3427"
   viewBox="0 0 264.38999 359.08035"
   height="101.34045mm"
   width="74.61673mm">
  <defs
     id="defs3429">
    <clipPath
       id="clipPath44"
       clipPathUnits="userSpaceOnUse">
      <path
         id="path46"
         d="m 0,0 595.276,0 0,841.89 L 0,841.89 0,0 Z" />
    </clipPath>
  </defs>
  <metadata
     id="metadata3432">
    <rdf:RDF>
      <cc:Work
         rdf:about="">
        <dc:format>image/svg+xml</dc:format>
        <dc:type
           rdf:resource="http://purl.org/dc/dcmitype/StillImage" />
        <dc:title></dc:title>
      </cc:Work>
    </rdf:RDF>
  </metadata>
  <g
     transform="translate(-358.09904,-55.679206)"
     id="layer1">
    <g
       clip-path="url(#clipPath44)"
       id="g42"
       transform="matrix(4.169466,0,0,-4.169466,-1742.8807,3447.7213)">
      <g
         transform="translate(524.8726,792.4911)"
         id="g48">
        <path
           id="path50"
           style="fill:#66c430;fill-opacity:1;fill-rule:nonzero;stroke:none"
           d="m 0,0 0.529,0 c 0.636,0 1.248,0.018 1.832,-0.132 l 0,0.001 c 1.507,-0.403 2.618,-1.777 2.618,-3.412 0,-1.95 -1.581,-3.53 -3.531,-3.53 l 0,-4.154 c 4.244,0 7.684,3.44 7.684,7.684 0,3.556 -2.415,6.548 -5.694,7.425 l -0.001,0 C 2.166,4.207 0.835,4.169 -0.546,4.169 l -3.608,0 0,-46.531 4.154,0 L 0,0 Z m -1.981,9.796 -7.78,0 0,-52.158 4.153,0 0,47.991 10e-4,-10e-4 4.681,0 c 1.644,0 3.228,0.045 4.74,-0.342 l 0,0 c 3.9,-1.043 6.772,-4.601 6.772,-8.829 0,-5.046 -4.091,-9.138 -9.138,-9.138 l 0,-4.153 c 7.34,0 13.291,5.95 13.291,13.291 0,6.151 -4.178,11.326 -9.851,12.842 L 4.889,9.301 C 2.696,9.862 0.402,9.796 -1.981,9.796 M 20.347,-3.543 c 0,8.745 -5.941,16.104 -14.007,18.259 l 0,0.002 c -3.123,0.799 -6.393,0.705 -9.787,0.705 l -11.922,0 0,-57.785 4.154,0 0,53.617 8.847,0 c 2.647,0 5.197,0.073 7.633,-0.551 l 0,-0.001 c 6.293,-1.682 10.928,-7.422 10.928,-14.246 0,-8.143 -6.601,-14.746 -14.745,-14.746 l 0,-4.152 c 10.437,0 18.899,8.461 18.899,18.898 M 7.792,20.134 c -4.046,1.036 -8.281,0.914 -12.679,0.914 l -16.088,0 -10e-4,-63.41 4.154,0 -0.001,59.241 13.017,0 c 3.65,0 7.165,0.102 10.523,-0.758 l 0,-10e-4 c 8.687,-2.321 15.084,-10.245 15.084,-19.663 0,-11.24 -9.114,-20.352 -20.353,-20.352 l 0,-4.153 c 13.534,0 24.506,10.971 24.506,24.505 0,11.34 -7.703,20.881 -18.162,23.677 m -23.089,-74.303 c -0.942,0.638 -1.959,0.592 -3.037,0.592 l -2.642,0 0,-11.219 2.081,0 0,4.251 0.41,0 c 1.108,0 2.414,-0.061 3.339,0.683 0.881,0.699 1.337,1.761 1.337,2.869 0,1.124 -0.563,2.202 -1.488,2.824 m -1.61,-4.235 c -0.5,-0.152 -1.093,-0.122 -1.609,-0.122 l -0.379,0 0,2.93 0.379,0 c 0.455,0 1.094,0.03 1.548,-0.091 0.623,-0.167 1.079,-0.653 1.079,-1.336 0,-0.653 -0.41,-1.184 -1.018,-1.381 m 12.224,-1.169 c 0.545,0.606 0.925,1.624 0.925,2.444 0,1.047 -0.501,2.095 -1.305,2.763 -0.85,0.714 -1.853,0.775 -2.916,0.789 l -3.248,0 0,-11.219 2.08,0 0,4.297 2.945,-4.297 2.566,0 -3.037,4.145 c 0.76,0.167 1.443,0.485 1.99,1.078 m -4.464,0.652 0,3.325 1.153,0 c 0.578,0.016 1.063,-0.015 1.549,-0.38 0.395,-0.288 0.608,-0.773 0.608,-1.259 0,-0.471 -0.182,-0.896 -0.517,-1.215 -0.41,-0.395 -1.108,-0.471 -1.655,-0.471 l -1.138,0 z m 11.795,5.344 -4.676,-11.219 2.292,0 1.245,2.9 3.978,0 1.214,-2.9 2.293,0 -4.721,11.219 -1.625,0 z m -0.38,-6.3 1.199,3.402 1.2,-3.402 -2.399,0 z m 11.338,1.139 -2.445,5.161 -2.292,0 3.69,-7.074 0,-4.145 2.08,0 0,4.145 3.689,7.074 -2.277,0 -2.445,-5.161 z m 11.224,5.374 c -3.233,0 -5.845,-2.612 -5.845,-5.89 0,-3.234 2.657,-5.815 5.86,-5.815 3.203,0 5.846,2.596 5.846,5.829 0,3.28 -2.627,5.876 -5.861,5.876 m 0,-9.686 c -2.049,0 -3.765,1.73 -3.765,3.796 0,2.125 1.67,3.871 3.765,3.826 l -0.015,0.045 c 2.095,0 3.796,-1.716 3.796,-3.857 0,-2.094 -1.716,-3.81 -3.781,-3.81 m 15.526,9.473 0,-8.199 -4.676,8.199 -2.339,0 0,-11.219 2.08,0 0,8.168 4.706,-8.168 2.308,0 0,11.219 -2.079,0 z" />
      </g>
    </g>
  </g>
</svg>
