<?xml version="1.0" standalone="no"?>
<!DOCTYPE svg PUBLIC "-//W3C//DTD SVG 20010904//EN"
 "http://www.w3.org/TR/2001/REC-SVG-20010904/DTD/svg10.dtd">
<svg version="1.0" xmlns="http://www.w3.org/2000/svg"
 width="810.000000pt" height="810.000000pt" viewBox="0 0 810.000000 810.000000"
 preserveAspectRatio="xMidYMid meet">
<metadata>
Created by potrace 1.14, written by Peter Selinger 2001-2017
</metadata>
<g transform="translate(0.000000,810.000000) scale(0.100000,-0.100000)"
fill="#000000" stroke="none">
<path d="M0 4050 l0 -2700 4050 0 4050 0 0 2700 0 2700 -4050 0 -4050 0 0
-2700z m4085 1980 l29 -90 105 0 105 0 -82 -60 c-45 -33 -82 -66 -82 -73 0 -7
13 -52 29 -100 17 -48 25 -84 18 -80 -7 4 -45 31 -84 60 l-73 54 -72 -54 c-40
-29 -78 -56 -85 -60 -7 -4 1 32 18 80 16 48 29 93 29 100 0 7 -37 40 -82 73
l-82 60 105 0 105 0 29 90 c16 50 32 90 35 90 3 0 19 -40 35 -90z m-900 -240
l29 -89 103 -3 104 -3 -81 -58 c-44 -32 -80 -64 -80 -71 0 -7 13 -51 29 -99
17 -48 25 -84 18 -80 -7 4 -42 28 -78 55 -37 26 -72 48 -79 48 -7 0 -42 -22
-79 -48 -36 -27 -71 -51 -78 -55 -7 -4 1 32 18 80 16 48 29 92 29 99 0 7 -36
39 -80 71 l-81 58 104 3 103 3 29 89 c16 50 32 90 35 90 3 0 19 -40 35 -90z
m1800 0 l29 -89 104 -3 104 -3 -81 -58 c-45 -32 -81 -64 -81 -71 0 -7 13 -51
29 -99 17 -48 25 -84 18 -80 -7 4 -42 28 -78 55 -37 26 -72 48 -79 48 -7 0
-42 -22 -79 -48 -36 -27 -71 -51 -78 -55 -7 -4 1 32 18 80 16 48 29 92 29 99
0 7 -36 39 -80 71 l-81 58 104 3 103 3 29 89 c16 50 32 90 35 90 3 0 19 -40
35 -90z m-2328 -752 l104 -3 -81 -58 c-44 -32 -80 -61 -80 -65 0 -4 13 -49 29
-99 l29 -93 -32 22 c-17 12 -54 39 -83 61 l-51 38 -74 -54 c-40 -29 -78 -57
-85 -60 -7 -4 1 31 18 80 16 48 29 93 29 100 0 7 -37 40 -82 73 l-82 60 106 0
106 0 21 71 c42 138 39 136 74 27 l30 -97 104 -3z m2988 90 l27 -88 106 0 106
0 -82 -60 c-45 -33 -82 -66 -82 -73 0 -7 13 -52 29 -100 17 -49 25 -84 18 -80
-7 3 -45 31 -85 60 l-74 54 -51 -38 c-29 -22 -66 -49 -83 -61 l-32 -22 29 93
c16 50 29 95 29 99 0 4 -36 33 -80 65 l-81 58 104 3 104 3 29 94 c16 51 32 91
36 87 3 -4 18 -46 33 -94z m-3360 -898 l29 -90 105 0 105 0 -82 -60 c-45 -33
-82 -66 -82 -73 0 -7 13 -52 29 -100 17 -48 25 -84 18 -80 -7 4 -45 31 -84 60
l-73 54 -72 -54 c-40 -29 -78 -56 -85 -60 -7 -4 1 32 18 80 16 48 29 93 29
100 0 7 -37 40 -82 73 l-82 60 105 0 105 0 29 90 c16 50 32 90 35 90 3 0 19
-40 35 -90z m3600 0 l29 -90 105 0 105 0 -82 -60 c-45 -33 -82 -66 -82 -73 0
-7 13 -52 29 -100 17 -48 25 -84 18 -80 -7 4 -45 31 -84 60 l-73 54 -72 -54
c-40 -29 -78 -56 -85 -60 -7 -4 1 32 18 80 16 48 29 93 29 100 0 7 -37 40 -82
73 l-82 60 105 0 105 0 29 90 c16 50 32 90 35 90 3 0 19 -40 35 -90z m-3228
-992 l104 -3 -81 -58 c-44 -32 -80 -61 -80 -65 0 -4 13 -49 29 -99 l29 -93
-32 22 c-17 12 -54 39 -83 61 l-51 38 -74 -54 c-40 -29 -78 -57 -85 -60 -7 -4
1 31 18 80 16 48 29 93 29 100 0 7 -37 40 -82 73 l-82 60 106 0 106 0 21 71
c42 138 39 137 74 27 l30 -97 104 -3z m2988 90 l27 -88 106 0 106 0 -82 -60
c-45 -33 -82 -66 -82 -73 0 -7 13 -52 29 -100 17 -49 25 -84 18 -80 -7 3 -45
31 -85 60 l-74 54 -51 -38 c-29 -22 -66 -49 -83 -61 l-32 -22 29 93 c16 50 29
95 29 99 0 4 -36 33 -80 65 l-81 58 104 3 104 3 29 94 c16 51 32 91 36 87 3
-4 18 -46 33 -94z m-2460 -658 l29 -90 105 0 105 0 -82 -60 c-45 -33 -82 -66
-82 -73 0 -7 13 -52 29 -100 l30 -88 -32 23 c-18 12 -56 40 -84 61 l-53 39
-52 -39 c-29 -21 -67 -49 -85 -61 l-32 -23 30 88 c16 48 29 93 29 100 0 7 -37
40 -82 73 l-82 60 105 0 105 0 29 90 c16 50 32 90 35 90 3 0 19 -40 35 -90z
m1800 0 l29 -90 105 0 105 0 -82 -60 c-45 -33 -82 -66 -82 -73 0 -7 13 -52 29
-100 l30 -88 -32 23 c-18 12 -56 40 -84 61 l-53 39 -52 -39 c-29 -21 -67 -49
-85 -61 l-32 -23 30 88 c16 48 29 93 29 100 0 7 -37 40 -82 73 l-82 60 105 0
105 0 29 90 c16 50 32 90 35 90 3 0 19 -40 35 -90z m-900 -240 l29 -90 105 0
105 0 -82 -60 c-45 -33 -82 -66 -82 -73 0 -7 13 -52 29 -100 17 -48 25 -84 18
-80 -7 4 -45 31 -84 60 l-73 54 -72 -54 c-40 -29 -78 -56 -85 -60 -7 -4 1 32
18 80 16 48 29 93 29 100 0 7 -37 40 -82 73 l-82 60 105 0 105 0 29 90 c16 50
32 90 35 90 3 0 19 -40 35 -90z"/>
</g>
</svg>
